<?xml version="1.0"?>
<svg xmlns="http://www.w3.org/2000/svg" xmlns:xlink="http://www.w3.org/1999/xlink" version="1.1" id="Capa_1" x="0px" y="0px" viewBox="0 0 512.002 512.002" style="enable-background:new 0 0 512.002 512.002;" xml:space="preserve" width="512px" height="512px" class=""><g><g>
	<path style="fill:#F5E9C6;" d="M226.397,187.903c17.259,0,31.25,13.99,31.25,31.25c0,17.256-13.992,31.25-31.25,31.25   c-17.259,0-31.25-13.994-31.25-31.25C195.147,201.893,209.138,187.903,226.397,187.903L226.397,187.903z M254.09,317.362   c28.377-46.428,23.75-41.932,70.172-70.305c4.414-2.615,8.273-6.314,11.139-11.006c9.33-15.291,4.494-35.264-10.797-44.594   c-46.424-28.377-41.93-23.75-70.3-70.17c-2.618-4.416-6.319-8.275-11.009-11.141c-15.291-9.33-35.265-4.494-44.593,10.797   c-28.377,46.424-23.75,41.93-70.172,70.301c-4.414,2.619-8.274,6.32-11.139,11.01c-9.33,15.291-4.494,35.262,10.797,44.592   c46.424,28.377,41.928,23.75,70.301,70.17c2.618,4.418,6.318,8.275,11.009,11.141C224.789,337.487,244.762,332.653,254.09,317.362z   " data-original="#F5E9C6" class=""/>
	<path style="fill:#FF9D21;" d="M257.647,219.153c0-17.26-13.992-31.25-31.25-31.25c-17.259,0-31.25,13.99-31.25,31.25   c0,17.256,13.991,31.25,31.25,31.25C243.655,250.403,257.647,236.409,257.647,219.153z" data-original="#FF9D21" class=""/>
	<path style="fill:#2C001D" d="M70,421c0-11.045-17.735-241.551-19.999-249.998c-2.234,8.34-20,238.953-20,249.998   c0,11.043,8.954,19.998,20,19.998C61.046,440.998,70,432.043,70,421z" data-original="#70B2CF" class="" data-old_color="#2c001d"/>
	<g>
		<path style="fill:#D5B1B8" d="M50.001,171.002c22.001,0,40-17.998,40-40h-40H10C10,153.004,27.999,171.002,50.001,171.002z" data-original="#CFEFFF" class="" data-old_color="#d5b1b8"/>
		<path style="fill:#D5B1B8" d="M502.001,51.002c-19.467,11.238-45.385,64.201-56.027,117.521    c-8.652,43.352-7.203,86.939,16.027,108.539c9.445,8.779,22.498,13.928,39.938,13.939c0.021,0,0.041,0,0.063,0L502.001,51.002    L502.001,51.002z" data-original="#CFEFFF" class="" data-old_color="#d5b1b8"/>
	</g>
	<path style="fill:#2C001D" d="M501.938,290.998c-17.44-0.008-30.492-5.156-39.938-13.936c0,39.998-20,93.938-20,133.936   c0,16.504,13.5,30,30.002,30c16.498,0,29.998-13.496,29.998-30L501.938,290.998z" data-original="#70B2CF" class="" data-old_color="#2c001d"/>
	<g>
		<path style="fill:#FF5A5A;" d="M261.348,383.26L261.348,383.26L261.348,383.26z M348.614,382.071l-46.574-31.904l-25.533,6.84    c-11.387,3.051-18.209,14.863-15.158,26.258c3.053,11.385,14.867,18.205,26.254,15.156L348.614,382.071z" data-original="#FF5A5A"/>
		<path style="fill:#FF5A5A;" d="M385.581,349.975L385.581,349.975L385.581,349.975z M302.04,350.166l46.574,31.904l21.809-5.842    c11.389-3.053,18.207-14.865,15.156-26.258c-1.967-7.332-7.566-12.773-14.348-14.9c-3.746-1.176-7.853-1.34-11.904-0.252    l-29.863,7.998L302.04,350.166z" data-original="#FF5A5A"/>
		<path style="fill:#FF5A5A;" d="M329.463,342.817l29.863-7.998c4.051-1.088,8.158-0.924,11.904,0.252l13.555-23.479l-23.941-38.537    l-30.18,52.273C327.477,330.85,327.245,337.299,329.463,342.817z" data-original="#FF5A5A"/>
		<path style="fill:#FF5A5A;" d="M360.844,273.055l23.941,38.537l20.521-35.543c5.498-9.529,2.205-21.822-7.322-27.324    c-9.527-5.496-21.818-2.205-27.32,7.32L360.844,273.055z" data-original="#FF5A5A"/>
	</g>
	<path style="fill:#F5E9C6;" d="M198.489,317.016c-28.373-46.42-23.877-41.793-70.301-70.17   c-15.291-9.33-20.127-29.301-10.797-44.592c2.865-4.689,6.725-8.391,11.139-11.01c46.422-28.371,41.795-23.877,70.172-70.301   c9.328-15.291,29.302-20.127,44.593-10.797c4.689,2.865,8.391,6.725,11.009,11.141c28.371,46.42,23.877,41.793,70.3,70.17   c15.291,9.33,20.127,29.303,10.797,44.594c-2.865,4.691-6.725,8.391-11.139,11.006c-46.422,28.373-41.795,23.877-70.172,70.305   c-9.328,15.291-29.301,20.125-44.592,10.795C204.808,325.291,201.107,321.434,198.489,317.016L198.489,317.016z M385.579,349.971   L385.579,349.971L385.579,349.971z M261.348,383.264L261.348,383.264L261.348,383.264z M330.665,325.328   c-3.188,5.521-3.42,11.971-1.201,17.488l-27.424,7.35l-25.533,6.84c-11.387,3.051-18.209,14.863-15.158,26.258   c3.053,11.385,14.867,18.205,26.254,15.156l61.012-16.35l21.809-5.842c11.389-3.053,18.207-14.865,15.156-26.258   c-1.967-7.332-7.566-12.773-14.348-14.9l13.555-23.479l20.521-35.543c5.498-9.529,2.205-21.822-7.322-27.324   c-9.527-5.496-21.818-2.205-27.32,7.32l-9.82,17.01L330.665,325.328L330.665,325.328z M50.001,171.002   c1.418,5.289,8.898,97.621,14.296,168.641c32.821,75.318,107.605,125.502,191.704,125.502c99.371,0,182.554-69.305,203.857-162.211   c1.316-9.043,2.143-17.746,2.143-25.871c-23.23-21.6-24.68-65.187-16.027-108.539c0-0.006,0.002-0.012,0.004-0.02   c-33.664-73.17-107.32-121.646-189.976-121.646c-65.559,0-126.746,30.688-166,81.916v2.229   C90.001,153.004,72.002,171.002,50.001,171.002z" data-original="#F5E9C6" class=""/>
</g><path d="M512,51.002c0-3.572-1.906-6.875-5-8.66c-3.094-1.787-6.906-1.787-10,0c-19.012,10.977-41.443,52.189-54.617,98.389  c-17.193-27.824-40.41-51.477-68.193-69.272c-35.346-22.637-76.215-34.602-118.189-34.602c-33.449,0-66.984,7.824-96.98,22.627  c-21.844,10.779-41.878,25.314-59.02,42.664V51.002c0-5.523-4.477-10-10-10s-10,4.477-10,10v70h-20v-70c0-5.523-4.478-10-10-10  c-5.523,0-10,4.477-10,10v70H20v-70c0-5.523-4.477-10-10-10c-5.522,0-10,4.477-10,10v80c0,23.746,16.646,43.664,38.877,48.736  c-1.862,17.877-5.103,56.172-9.683,114.465C25.377,342.781,20.001,414.236,20.001,421c0,16.541,13.458,29.998,30,29.998  C66.542,450.998,80,437.541,80,421c0-2.926-0.997-17.853-2.436-37.777c40.579,56.935,106.685,91.922,178.438,91.922  c49.375,0,97.841-16.934,136.474-47.684c16-12.734,30.063-27.652,41.844-44.17c-1.412,9.613-2.318,18.951-2.318,27.707  c0,22.055,17.945,40,40.002,40c22.055,0,39.998-17.945,39.998-40.006l-0.062-118.895c0.039-0.359,0.062-0.725,0.062-1.096V51.002  H512z M492.001,76.243v204.053c-19.385-2.91-31.656-14.824-37.381-36.184c-7.129-26.607-3.109-67.697,10.754-109.916  C473.534,109.34,483.262,89.414,492.001,76.243z M21.72,141.002h56.56c-4.128,11.639-15.243,20-28.279,20  C36.964,161.002,25.849,152.641,21.72,141.002z M50.001,430.998c-5.514,0-10-4.486-10-9.998c0-4.779,5-72.336,10.002-135.764  C55.002,348.653,60,416.203,60,421C60,426.512,55.515,430.998,50.001,430.998z M256.001,455.145  c-78.669,0-149.873-46.279-181.87-118.037c-1.126-14.807-2.276-29.68-3.312-42.863c-4.58-58.311-7.822-96.619-9.69-114.506  c21.824-4.982,38.247-24.273,38.839-47.445c37.518-47.287,95.586-75.436,156.033-75.436c76.4,0,146.502,44.221,179.511,112.93  c-5.305,28.424-6.303,56.764-0.211,79.5c3.457,12.902,9.037,23.568,16.623,31.811c-0.213,6.182-0.887,12.766-1.857,19.592  C429.126,391.631,349.325,455.145,256.001,455.145z M472.003,430.998c-11.029,0-20.002-8.973-20.002-20  c0-18.947,4.973-42.301,9.781-64.887c3.662-17.201,7.408-34.826,9.172-51.273c6.338,2.871,13.342,4.752,20.988,5.613l0.059,110.547  C492.001,422.026,483.03,430.998,472.003,430.998z" data-original="#000000" class="active-path"/><path d="M226.398,177.903c-22.747,0-41.252,18.504-41.252,41.25c0,22.744,18.505,41.25,41.252,41.25  c22.744,0,41.249-18.506,41.249-41.25C267.647,196.407,249.143,177.903,226.398,177.903z M226.398,240.403  c-11.718,0-21.252-9.533-21.252-21.25c0-11.719,9.534-21.25,21.252-21.25c11.716,0,21.248,9.531,21.248,21.25  C247.647,230.869,238.114,240.403,226.398,240.403z" data-original="#000000" class="active-path"/><path d="M262.624,322.573c1.73-2.83,3.338-5.471,4.842-7.943c20.563-33.785,20.563-33.785,54.852-54.674  c2.225-1.355,4.588-2.795,7.1-4.328c5.904-3.508,10.924-8.475,14.522-14.369c12.185-19.979,5.85-46.148-14.121-58.334  c-2.83-1.73-5.473-3.338-7.943-4.844c-33.785-20.561-33.785-20.561-54.676-54.855c-1.355-2.225-2.793-4.586-4.328-7.096  c-3.51-5.904-8.476-10.924-14.367-14.52c-6.663-4.064-14.295-6.213-22.07-6.213c-14.939,0-28.497,7.604-36.264,20.334  c-1.73,2.832-3.34,5.473-4.844,7.945c-20.561,33.783-20.561,33.783-54.855,54.674c-2.225,1.355-4.586,2.793-7.096,4.328  c-5.906,3.512-10.924,8.479-14.519,14.367c-12.186,19.977-5.848,46.146,14.121,58.336c2.828,1.729,5.469,3.336,7.938,4.84  c33.79,20.563,33.79,20.563,54.678,54.854c1.356,2.227,2.796,4.588,4.331,7.102c3.514,5.908,8.48,10.928,14.367,14.516  c6.662,4.066,14.295,6.215,22.07,6.215C241.298,342.907,254.857,335.303,262.624,322.573z M245.556,312.149  c-4.11,6.736-11.286,10.758-19.195,10.758c-4.1,0-8.129-1.137-11.656-3.289c-3.17-1.932-5.73-4.522-7.609-7.697  c-0.024-0.039-0.049-0.08-0.073-0.121c-1.542-2.523-2.987-4.895-4.349-7.131c-22.98-37.723-24.127-38.873-61.361-61.533  c-2.46-1.496-5.089-3.096-7.91-4.82c-10.564-6.449-13.916-20.289-7.475-30.852c1.938-3.172,4.529-5.734,7.703-7.615  c0.04-0.024,0.079-0.047,0.118-0.072c2.521-1.541,4.893-2.984,7.126-4.346c37.728-22.981,38.878-24.129,61.535-61.356  c1.498-2.461,3.1-5.094,4.828-7.92c4.109-6.736,11.285-10.758,19.195-10.758c4.1,0,8.129,1.137,11.652,3.285  c3.174,1.938,5.735,4.529,7.615,7.703c0.023,0.039,0.047,0.078,0.071,0.117c1.542,2.523,2.985,4.895,4.347,7.129  c22.98,37.727,24.128,38.877,61.357,61.535c2.461,1.498,5.092,3.1,7.918,4.826c10.564,6.445,13.916,20.285,7.473,30.85  c-1.938,3.174-4.527,5.734-7.697,7.607c-0.041,0.025-0.082,0.051-0.123,0.076c-2.525,1.543-4.898,2.988-7.135,4.35  c-37.721,22.98-38.871,24.127-61.53,61.357C248.884,306.694,247.282,309.325,245.556,312.149z" data-original="#000000" class="active-path"/><path d="M403.211,240.2c-0.076-0.045-0.152-0.092-0.23-0.137c-4.535-2.617-9.701-4-14.94-4c-10.723,0-20.699,5.74-26.037,14.982  l-9.82,17.01c-0.016,0.027-0.031,0.055-0.047,0.084l-30.133,52.189c-2.717,4.707-4.057,9.941-4.008,15.209l-44.08,11.809  c-16.688,4.473-26.648,21.648-22.269,38.34c0.014,0.057,0.027,0.111,0.043,0.166c3.676,13.717,16.177,23.295,30.402,23.295  c2.727,0,5.451-0.359,8.098-1.068l82.822-22.191c16.738-4.486,26.711-21.758,22.227-38.5c-0.014-0.051-0.027-0.102-0.041-0.152  c-1.746-6.387-5.424-11.85-10.279-15.873l8.527-14.768c0.016-0.029,0.033-0.059,0.049-0.088l20.473-35.459  c3.994-6.922,5.051-15.004,2.973-22.758C414.885,250.618,410.014,244.203,403.211,240.2z M285.016,388.76  c-0.959,0.256-1.943,0.387-2.924,0.387c-5.156,0-9.688-3.438-11.059-8.375c-0.008-0.033-0.016-0.066-0.025-0.1  c-1.633-6.092,1.996-12.375,8.086-14.008l21.088-5.648l24.85,17.021L285.016,388.76z M367.835,366.569l-17.365,4.652L325.622,354.2  l36.295-9.723c0.451-0.121,0.908-0.207,1.367-0.272c0.043-0.008,0.086-0.016,0.129-0.021c0.434-0.055,0.867-0.08,1.303-0.086  c0.082,0,0.164-0.004,0.246-0.004c0.195,0.002,0.389,0.014,0.582,0.025c0.107,0.006,0.215,0.008,0.322,0.018  c0.184,0.018,0.365,0.045,0.549,0.07c0.32,0.045,0.639,0.1,0.955,0.172c0.035,0.008,0.07,0.014,0.105,0.023  c0.256,0.061,0.508,0.129,0.76,0.209c3.688,1.141,6.65,4.09,7.684,7.947c0.008,0.031,0.017,0.063,0.025,0.094  C377.514,358.715,373.893,364.946,367.835,366.569z M364.842,324.09c-0.203,0-0.408,0.016-0.611,0.02  c-0.33,0.006-0.66,0.016-0.99,0.033c-0.418,0.022-0.836,0.055-1.254,0.094c-0.31,0.029-0.623,0.055-0.934,0.092  c-0.467,0.059-0.932,0.133-1.395,0.211c-0.258,0.045-0.518,0.078-0.773,0.129c-0.721,0.139-1.436,0.301-2.146,0.49l-4.328,1.16  l-12.74,3.412l21.488-37.221l11.973,19.27l-7.119,12.33c-0.228-0.008-0.455,0.004-0.682,0  C365.167,324.108,365.006,324.09,364.842,324.09z M396.647,271.049l-12.176,21.086l-11.971-19.27l6.824-11.818  c1.775-3.074,5.115-4.984,8.717-4.984c1.707,0,3.324,0.42,4.811,1.248c0.045,0.027,0.09,0.053,0.137,0.08  c2.293,1.322,3.938,3.48,4.633,6.074C398.317,266.061,397.971,268.754,396.647,271.049z" data-original="#000000" class="active-path"/><path d="M335.428,118.262l0.254,0.146c1.609,0.965,3.381,1.424,5.129,1.424c3.4,0,6.715-1.734,8.588-4.863  c2.838-4.738,1.299-10.879-3.439-13.717l-0.391-0.229c-4.76-2.795-10.891-1.205-13.688,3.557  C329.086,109.34,330.67,115.463,335.428,118.262z" data-original="#000000" class="active-path"/><path d="M358.854,134.748c13.967,11.848,25.69,25.895,34.844,41.752c1.854,3.207,5.215,5.002,8.67,5.002  c1.697,0,3.416-0.434,4.99-1.342c4.783-2.762,6.422-8.877,3.66-13.66c-10.305-17.852-23.504-33.666-39.227-47.004  c-4.211-3.572-10.521-3.055-14.096,1.158C354.124,124.866,354.643,131.176,358.854,134.748z" data-original="#000000" class="active-path"/><path d="M214.925,409.604l-0.391-0.104c-5.33-1.451-10.826,1.689-12.279,7.018c-1.453,5.328,1.688,10.824,7.016,12.277l0.358,0.094  c0.881,0.24,1.767,0.355,2.638,0.355c4.385,0,8.408-2.906,9.633-7.338C223.37,416.582,220.248,411.075,214.925,409.604z" data-original="#000000" class="active-path"/><path d="M188.036,399.744c-16.563-7.834-31.523-18.369-44.465-31.313c-3.905-3.904-10.237-3.904-14.143,0  c-3.904,3.906-3.904,10.238,0,14.143c14.57,14.57,31.411,26.43,50.055,35.25c1.381,0.652,2.836,0.961,4.27,0.961  c3.746,0,7.338-2.113,9.046-5.725C195.161,408.069,193.028,402.106,188.036,399.744z" data-original="#000000" class="active-path"/></g> </svg>
