<?xml version="1.0" encoding="iso-8859-1"?>
<!-- Generator: Adobe Illustrator 16.0.0, SVG Export Plug-In . SVG Version: 6.00 Build 0)  -->
<!DOCTYPE svg PUBLIC "-//W3C//DTD SVG 1.1//EN" "http://www.w3.org/Graphics/SVG/1.1/DTD/svg11.dtd">
<svg version="1.1" id="Capa_1" xmlns="http://www.w3.org/2000/svg" xmlns:xlink="http://www.w3.org/1999/xlink" x="0px" y="0px"
	 width="210.946px" height="210.947px" viewBox="0 0 210.946 210.947" style="enable-background:new 0 0 210.946 210.947;"
	 xml:space="preserve">
<g>
	<g>
		<path d="M105.433,34.254c-39.271,0-71.22,31.949-71.22,71.22c0,39.27,31.949,71.219,71.22,71.219
			c39.272,0,71.222-31.949,71.222-71.219C176.655,66.203,144.705,34.254,105.433,34.254z M105.433,169.944
			c-35.549,0-64.47-28.921-64.47-64.469c0-35.549,28.921-64.47,64.47-64.47c35.549,0,64.472,28.921,64.472,64.47
			C169.905,141.023,140.982,169.944,105.433,169.944z"/>
		<path d="M105.433,53.638c-28.581,0-51.833,23.253-51.833,51.836c0,28.584,23.252,51.839,51.833,51.839
			c28.583,0,51.836-23.255,51.836-51.839C157.271,76.892,134.016,53.638,105.433,53.638z M105.433,150.564
			c-24.859,0-45.083-20.227-45.083-45.089c0-24.861,20.224-45.086,45.083-45.086c24.861,0,45.086,20.225,45.086,45.086
			C150.521,130.337,130.295,150.564,105.433,150.564z"/>
		<path d="M206.693,107.012c-0.004-1.687-0.059-18.491-0.555-35.09c-0.306-10.262-0.72-18.452-1.228-24.343
			c-0.313-3.634-0.657-6.358-1.05-8.329c-0.342-1.716-1.143-5.735-4.625-5.735c-0.254,0-0.508,0.026-0.756,0.078
			c-2.155,0.446-3.623,2.133-6.623,10.944c-1.863,5.475-3.91,12.644-5.764,20.19c-2.205,8.977-7.201,31.14-5.98,43.042
			c0.801,7.811,4.332,9.45,7.154,9.45l0.164-0.002c1.332-0.034,2.391-0.052,3.235-0.052c0.976,0,1.583,0.021,2.286,0.047
			c0.094,0.003,0.189,0.007,0.289,0.01c-0.236,5.541-1.171,13.22-2.081,20.689c-1.323,10.867-2.692,22.105-2.224,28.756
			c0.559,7.945,5.936,10.764,10.371,10.764c3.125,0,6.317-1.332,8.537-3.562c2.014-2.024,3.114-4.656,3.101-7.41
			C210.905,158.311,206.98,110.52,206.693,107.012z M203.061,169.108c-0.967,0.972-2.404,1.574-3.754,1.574
			c-2.203,0-3.428-1.51-3.637-4.487c-0.422-6.004,0.906-16.914,2.191-27.467c1.186-9.734,2.305-18.93,2.178-24.896
			c-0.039-1.836-1.539-3.303-3.374-3.303c-1.731,0-8.675,0.664-9.06-0.068c-1.062-1.741-2.277-10.688,3.021-35.345
			c2.425-11.285,5.272-21.403,7.481-27.997c1.129,12.633,1.799,37.293,1.836,60.042c0,0.092,0.004,0.182,0.011,0.272
			c0.042,0.509,4.201,51.04,4.242,59.063C204.201,167.466,203.819,168.346,203.061,169.108z"/>
		<path d="M36.723,70.209c0-2.134-0.068-5.211-0.154-9.106c-0.132-5.952-0.296-15.609-0.296-23.355c0-1.864-1.511-3.375-3.375-3.375
			c-1.864,0-3.375,1.511-3.375,3.375c0,7.821,0.165,17.519,0.298,23.504c0.023,1.046,0.046,2.051,0.065,3.002l-3.472,0.051V38.878
			c0-1.864-1.511-3.375-3.375-3.375c-1.864,0-3.375,1.511-3.375,3.375v25.527l-3.153,0.046V38.878c0-1.864-1.511-3.375-3.375-3.375
			c-1.864,0-3.375,1.511-3.375,3.375V64.55L6.75,64.594V36.973c0-1.864-1.511-3.375-3.375-3.375C1.511,33.598,0,35.109,0,36.973
			v32.825c0,8.19,6.004,13.786,15.58,14.887v19.335c-0.975,0.018-1.512,0.034-1.567,0.035c-1.633,0.048-2.998,1.258-3.239,2.874
			c-1.598,10.676-5.008,44.078-4.729,57.747c0.173,8.444,5.758,12.224,11.216,12.224c5.808,0,12.269-4.297,12.581-11.24
			c0.357-7.971-1.746-41.746-2.644-53.862c-0.163-2.206-0.285-3.849-0.342-4.694c-0.119-1.771-1.591-3.149-3.367-3.149
			c-0.399,0-0.784,0-1.159,0.002V84.633C30.952,83.253,36.723,76.417,36.723,70.209z M23.099,165.357
			c-0.129,2.867-3.122,4.792-5.837,4.792c-2.848,0-4.393-1.94-4.468-5.612c-0.236-11.584,2.46-41.022,4.249-53.791
			c0.904-0.013,2.012-0.024,3.308-0.032c0.036,0.487,0.075,1.017,0.117,1.581C21.28,123.261,23.438,157.789,23.099,165.357z
			 M6.894,71.343l22.997-0.338c-0.606,3.154-4.658,7.133-10.738,7.133C16.451,78.138,8.075,77.615,6.894,71.343z"/>
	</g>
</g>
<g>
</g>
<g>
</g>
<g>
</g>
<g>
</g>
<g>
</g>
<g>
</g>
<g>
</g>
<g>
</g>
<g>
</g>
<g>
</g>
<g>
</g>
<g>
</g>
<g>
</g>
<g>
</g>
<g>
</g>
</svg>
